<svg xmlns="http://www.w3.org/2000/svg" width="147" height="20" viewBox="0 0 147 20" fill="currentColor"><path d="M16.9228 1.22796C13.2136 0.57613 9.73288 0 7.31422 0C6.23447 0 5.22211 0.115226 4.31531 0.440273C3.40852 0.765319 2.60774 1.30072 1.93084 2.05453C1.25393 2.80834 0.721277 3.83174 0.363642 5.02644C0.00600741 6.22114 -0.136638 7.68859 0.142481 9.38795C0.396359 10.9521 0.859552 12.3013 1.5079 13.4357C2.15625 14.57 2.96549 15.5024 3.93402 16.2395C4.90254 16.9851 5.99828 17.5375 7.22159 17.904C8.44489 18.2705 9.76259 18.46 11.1644 18.46C12.0926 18.46 13.0703 18.3952 14.0899 18.2657C15.1172 18.1362 16.1483 17.9549 17.191 17.7142L17.8563 12.5617C17.191 12.8065 16.4372 13.0224 15.5951 13.2093C14.753 13.3962 13.8327 13.49 12.8462 13.49C11.3691 13.49 10.1458 13.1774 9.18843 12.5567C8.22724 11.9359 7.60989 10.9593 7.33617 9.62765H18.7268C18.8494 9.17425 18.9356 8.67765 18.9843 8.14226C19.033 7.60688 19.018 6.99262 18.9394 6.29922C18.7492 4.52068 18.001 3.05925 16.9228 1.22796ZM7.32361 6.89532C7.35934 6.14637 7.57517 5.46377 7.97091 4.85593C8.36664 4.2481 8.94234 3.76481 9.68676 3.41229C10.4312 3.05977 11.3626 2.88257 12.4771 2.88257C13.2384 2.88257 13.8931 2.94881 14.4499 3.07754C15.0066 3.20627 15.4723 3.411 15.8421 3.69185C16.2204 3.9727 16.5135 4.34289 16.7293 4.79817C16.9452 5.25344 17.0863 5.78925 17.1559 6.39176C17.1883 6.61229 17.2146 6.79689 17.2371 6.94495C17.2597 7.093 17.2728 7.24106 17.2803 7.38911L7.32361 6.89532Z" fill="currentColor"/></svg>