<svg xmlns="http://www.w3.org/2000/svg" width="930" height="372" viewBox="0 0 930 372">
<rect width="100%" height="100%" fill="white"/>
<text x="465.0" y="28" text-anchor="middle" font-family="Arial, Helvetica, sans-serif" font-size="20" font-weight="bold">Mortality site-specific oxygen effect estimates</text>
<line x1="330" y1="77.0" x2="870" y2="77.0" stroke="#eeeeee" stroke-width="1"/>
<text x="320" y="82.0" text-anchor="end" font-family="Arial, Helvetica, sans-serif" font-size="13">Lung and Bronchus (n=1103)</text>
<line x1="330" y1="111.0" x2="870" y2="111.0" stroke="#eeeeee" stroke-width="1"/>
<text x="320" y="116.0" text-anchor="end" font-family="Arial, Helvetica, sans-serif" font-size="13">Colon and Rectum (n=866)</text>
<line x1="330" y1="145.0" x2="870" y2="145.0" stroke="#eeeeee" stroke-width="1"/>
<text x="320" y="150.0" text-anchor="end" font-family="Arial, Helvetica, sans-serif" font-size="13">Pancreas (n=703)</text>
<line x1="330" y1="179.0" x2="870" y2="179.0" stroke="#eeeeee" stroke-width="1"/>
<text x="320" y="184.0" text-anchor="end" font-family="Arial, Helvetica, sans-serif" font-size="13">Male and Female Breast (n=653)</text>
<line x1="330" y1="213.0" x2="870" y2="213.0" stroke="#eeeeee" stroke-width="1"/>
<text x="320" y="218.0" text-anchor="end" font-family="Arial, Helvetica, sans-serif" font-size="13">Prostate (n=562)</text>
<line x1="330" y1="247.0" x2="870" y2="247.0" stroke="#eeeeee" stroke-width="1"/>
<text x="320" y="252.0" text-anchor="end" font-family="Arial, Helvetica, sans-serif" font-size="13">Liver and Intrahepatic Bile Duct (n=499)</text>
<line x1="330" y1="281.0" x2="870" y2="281.0" stroke="#eeeeee" stroke-width="1"/>
<text x="320" y="286.0" text-anchor="end" font-family="Arial, Helvetica, sans-serif" font-size="13">Leukemias (n=475)</text>
<line x1="330" y1="315.0" x2="870" y2="315.0" stroke="#eeeeee" stroke-width="1"/>
<text x="320" y="320.0" text-anchor="end" font-family="Arial, Helvetica, sans-serif" font-size="13">Non-Hodgkin Lymphoma (n=415)</text>
<line x1="330" y1="60" x2="870" y2="60" stroke="#333333" stroke-width="1"/>
<line x1="330" y1="332" x2="870" y2="332" stroke="#333333" stroke-width="1"/>
<line x1="330" y1="60" x2="330" y2="332" stroke="#333333" stroke-width="1"/>
<line x1="870" y1="60" x2="870" y2="332" stroke="#333333" stroke-width="1"/>
<line x1="661.5" y1="60" x2="661.5" y2="332" stroke="#111111" stroke-width="1.2" stroke-dasharray="6,4"/>
<line x1="330.0" y1="332" x2="330.0" y2="338" stroke="#333333" stroke-width="1"/>
<text x="330.0" y="354" text-anchor="middle" font-family="Arial, Helvetica, sans-serif" font-size="12">-89.0</text>
<line x1="420.0" y1="332" x2="420.0" y2="338" stroke="#333333" stroke-width="1"/>
<text x="420.0" y="354" text-anchor="middle" font-family="Arial, Helvetica, sans-serif" font-size="12">-64.8</text>
<line x1="510.0" y1="332" x2="510.0" y2="338" stroke="#333333" stroke-width="1"/>
<text x="510.0" y="354" text-anchor="middle" font-family="Arial, Helvetica, sans-serif" font-size="12">-40.7</text>
<line x1="600.0" y1="332" x2="600.0" y2="338" stroke="#333333" stroke-width="1"/>
<text x="600.0" y="354" text-anchor="middle" font-family="Arial, Helvetica, sans-serif" font-size="12">-16.5</text>
<line x1="690.0" y1="332" x2="690.0" y2="338" stroke="#333333" stroke-width="1"/>
<text x="690.0" y="354" text-anchor="middle" font-family="Arial, Helvetica, sans-serif" font-size="12">7.7</text>
<line x1="780.0" y1="332" x2="780.0" y2="338" stroke="#333333" stroke-width="1"/>
<text x="780.0" y="354" text-anchor="middle" font-family="Arial, Helvetica, sans-serif" font-size="12">31.8</text>
<line x1="870.0" y1="332" x2="870.0" y2="338" stroke="#333333" stroke-width="1"/>
<text x="870.0" y="354" text-anchor="middle" font-family="Arial, Helvetica, sans-serif" font-size="12">56.0</text>
<line x1="367.2" y1="69.0" x2="518.5" y2="69.0" stroke="#1f77b4" stroke-width="2"/>
<line x1="367.2" y1="65.0" x2="367.2" y2="73.0" stroke="#1f77b4" stroke-width="2"/>
<line x1="518.5" y1="65.0" x2="518.5" y2="73.0" stroke="#1f77b4" stroke-width="2"/>
<circle cx="442.9" cy="69.0" r="4.5" fill="#1f77b4"/>
<line x1="368.5" y1="85.0" x2="526.1" y2="85.0" stroke="#d62728" stroke-width="2"/>
<line x1="368.5" y1="81.0" x2="368.5" y2="89.0" stroke="#d62728" stroke-width="2"/>
<line x1="526.1" y1="81.0" x2="526.1" y2="89.0" stroke="#d62728" stroke-width="2"/>
<circle cx="447.3" cy="85.0" r="4.5" fill="#d62728"/>
<line x1="581.2" y1="103.0" x2="703.7" y2="103.0" stroke="#1f77b4" stroke-width="2"/>
<line x1="581.2" y1="99.0" x2="581.2" y2="107.0" stroke="#1f77b4" stroke-width="2"/>
<line x1="703.7" y1="99.0" x2="703.7" y2="107.0" stroke="#1f77b4" stroke-width="2"/>
<circle cx="642.5" cy="103.0" r="4.5" fill="#1f77b4"/>
<line x1="573.1" y1="119.0" x2="696.2" y2="119.0" stroke="#d62728" stroke-width="2"/>
<line x1="573.1" y1="115.0" x2="573.1" y2="123.0" stroke="#d62728" stroke-width="2"/>
<line x1="696.2" y1="115.0" x2="696.2" y2="123.0" stroke="#d62728" stroke-width="2"/>
<circle cx="634.7" cy="119.0" r="4.5" fill="#d62728"/>
<line x1="642.0" y1="137.0" x2="687.4" y2="137.0" stroke="#1f77b4" stroke-width="2"/>
<line x1="642.0" y1="133.0" x2="642.0" y2="141.0" stroke="#1f77b4" stroke-width="2"/>
<line x1="687.4" y1="133.0" x2="687.4" y2="141.0" stroke="#1f77b4" stroke-width="2"/>
<circle cx="664.7" cy="137.0" r="4.5" fill="#1f77b4"/>
<line x1="637.9" y1="153.0" x2="684.5" y2="153.0" stroke="#d62728" stroke-width="2"/>
<line x1="637.9" y1="149.0" x2="637.9" y2="157.0" stroke="#d62728" stroke-width="2"/>
<line x1="684.5" y1="149.0" x2="684.5" y2="157.0" stroke="#d62728" stroke-width="2"/>
<circle cx="661.2" cy="153.0" r="4.5" fill="#d62728"/>
<line x1="649.6" y1="171.0" x2="736.1" y2="171.0" stroke="#1f77b4" stroke-width="2"/>
<line x1="649.6" y1="167.0" x2="649.6" y2="175.0" stroke="#1f77b4" stroke-width="2"/>
<line x1="736.1" y1="167.0" x2="736.1" y2="175.0" stroke="#1f77b4" stroke-width="2"/>
<circle cx="692.8" cy="171.0" r="4.5" fill="#1f77b4"/>
<line x1="647.5" y1="187.0" x2="735.1" y2="187.0" stroke="#d62728" stroke-width="2"/>
<line x1="647.5" y1="183.0" x2="647.5" y2="191.0" stroke="#d62728" stroke-width="2"/>
<line x1="735.1" y1="183.0" x2="735.1" y2="191.0" stroke="#d62728" stroke-width="2"/>
<circle cx="691.3" cy="187.0" r="4.5" fill="#d62728"/>
<line x1="714.2" y1="205.0" x2="832.8" y2="205.0" stroke="#1f77b4" stroke-width="2"/>
<line x1="714.2" y1="201.0" x2="714.2" y2="209.0" stroke="#1f77b4" stroke-width="2"/>
<line x1="832.8" y1="201.0" x2="832.8" y2="209.0" stroke="#1f77b4" stroke-width="2"/>
<circle cx="773.5" cy="205.0" r="4.5" fill="#1f77b4"/>
<line x1="702.3" y1="221.0" x2="824.5" y2="221.0" stroke="#d62728" stroke-width="2"/>
<line x1="702.3" y1="217.0" x2="702.3" y2="225.0" stroke="#d62728" stroke-width="2"/>
<line x1="824.5" y1="217.0" x2="824.5" y2="225.0" stroke="#d62728" stroke-width="2"/>
<circle cx="763.4" cy="221.0" r="4.5" fill="#d62728"/>
<line x1="634.0" y1="239.0" x2="663.0" y2="239.0" stroke="#1f77b4" stroke-width="2"/>
<line x1="634.0" y1="235.0" x2="634.0" y2="243.0" stroke="#1f77b4" stroke-width="2"/>
<line x1="663.0" y1="235.0" x2="663.0" y2="243.0" stroke="#1f77b4" stroke-width="2"/>
<circle cx="648.5" cy="239.0" r="4.5" fill="#1f77b4"/>
<line x1="631.6" y1="255.0" x2="661.5" y2="255.0" stroke="#d62728" stroke-width="2"/>
<line x1="631.6" y1="251.0" x2="631.6" y2="259.0" stroke="#d62728" stroke-width="2"/>
<line x1="661.5" y1="251.0" x2="661.5" y2="259.0" stroke="#d62728" stroke-width="2"/>
<circle cx="646.5" cy="255.0" r="4.5" fill="#d62728"/>
<line x1="646.4" y1="273.0" x2="682.9" y2="273.0" stroke="#1f77b4" stroke-width="2"/>
<line x1="646.4" y1="269.0" x2="646.4" y2="277.0" stroke="#1f77b4" stroke-width="2"/>
<line x1="682.9" y1="269.0" x2="682.9" y2="277.0" stroke="#1f77b4" stroke-width="2"/>
<circle cx="664.6" cy="273.0" r="4.5" fill="#1f77b4"/>
<line x1="641.7" y1="289.0" x2="681.5" y2="289.0" stroke="#d62728" stroke-width="2"/>
<line x1="641.7" y1="285.0" x2="641.7" y2="293.0" stroke="#d62728" stroke-width="2"/>
<line x1="681.5" y1="285.0" x2="681.5" y2="293.0" stroke="#d62728" stroke-width="2"/>
<circle cx="661.6" cy="289.0" r="4.5" fill="#d62728"/>
<line x1="649.1" y1="307.0" x2="673.7" y2="307.0" stroke="#1f77b4" stroke-width="2"/>
<line x1="649.1" y1="303.0" x2="649.1" y2="311.0" stroke="#1f77b4" stroke-width="2"/>
<line x1="673.7" y1="303.0" x2="673.7" y2="311.0" stroke="#1f77b4" stroke-width="2"/>
<circle cx="661.4" cy="307.0" r="4.5" fill="#1f77b4"/>
<line x1="644.5" y1="323.0" x2="672.2" y2="323.0" stroke="#d62728" stroke-width="2"/>
<line x1="644.5" y1="319.0" x2="644.5" y2="327.0" stroke="#d62728" stroke-width="2"/>
<line x1="672.2" y1="319.0" x2="672.2" y2="327.0" stroke="#d62728" stroke-width="2"/>
<circle cx="658.3" cy="323.0" r="4.5" fill="#d62728"/>
<line x1="730" y1="42" x2="750" y2="42" stroke="#1f77b4" stroke-width="2"/>
<circle cx="740" cy="42" r="4" fill="#1f77b4"/>
<text x="758" y="46" font-family="Arial, Helvetica, sans-serif" font-size="12">Total Effect</text>
<line x1="730" y1="62" x2="750" y2="62" stroke="#d62728" stroke-width="2"/>
<circle cx="740" cy="62" r="4" fill="#d62728"/>
<text x="758" y="66" font-family="Arial, Helvetica, sans-serif" font-size="12">Direct Effect</text>
<text x="600.0" y="364" text-anchor="middle" font-family="Arial, Helvetica, sans-serif" font-size="13">Estimated slope for hypoxia burden</text>
</svg>